<svg xmlns="http://www.w3.org/2000/svg" viewBox="0 0 400 300" role="img" aria-label="Carillas Dentales">
  <rect width="400" height="300" rx="20" fill="#fdf6e9"/>
  <path d="M190 100c-2-9-6-16-12-20-11-8-27-5-33 7-3 7-3 16 1 23 5 12 20 15 29 8 2-1 4-1 6 0 9 7 23 4 29-8 4-7 4-16 1-23-6-12-22-15-33-7-6 4-10 11-12 20z" fill="#ffffff" stroke="#ffd166" stroke-width="4"/>
  <path d="M200 120v74M178 122v60M222 122v60" stroke="#ffe9ad" stroke-width="5" stroke-linecap="round"/>
  <path d="M178 200c0-8 4-13 12-13M200 200c0-8 4-13 12-13M222 200c0-8 4-13 12-13" stroke="#ffe9ad" stroke-width="4" stroke-linecap="round" fill="none"/>
  <path d="M320 50l5 13 13 5-13 5-5 13-5-13-13-5 13-5z" fill="#ffd166"/>
</svg>